<!--! Font Awesome Pro 6.1.1 by @fontawesome - https://fontawesome.com  Copyright 2022 Fonticons, Inc. -->
<svg xmlns="http://www.w3.org/2000/svg">
	<symbol id="caret-right"            viewBox="0 0 256 512"><path d="M118.6 105.4l128 127.1C252.9 239.6 256 247.8 256 255.1s-3.125 16.38-9.375 22.63l-128 127.1c-9.156 9.156-22.91 11.9-34.88 6.943S64 396.9 64 383.1V128c0-12.94 7.781-24.62 19.75-29.58S109.5 96.23 118.6 105.4z"/></symbol>
	<symbol id="caret-down"             viewBox="0 0 320 512"><path d="M310.6 246.6l-127.1 128C176.4 380.9 168.2 384 160 384s-16.38-3.125-22.63-9.375l-127.1-128C.2244 237.5-2.516 223.7 2.438 211.8S19.07 192 32 192h255.1c12.94 0 24.62 7.781 29.58 19.75S319.8 237.5 310.6 246.6z"/></symbol>
	<symbol id="circle-minus"           viewBox="0 0 512 512"><path d="M344 232C357.3 232 368 242.7 368 256C368 269.3 357.3 280 344 280H168C154.7 280 144 269.3 144 256C144 242.7 154.7 232 168 232H344zM512 256C512 397.4 397.4 512 256 512C114.6 512 0 397.4 0 256C0 114.6 114.6 0 256 0C397.4 0 512 114.6 512 256zM256 48C141.1 48 48 141.1 48 256C48 370.9 141.1 464 256 464C370.9 464 464 370.9 464 256C464 141.1 370.9 48 256 48z"/></symbol>
	<symbol id="circle-plus"            viewBox="0 0 512 512"><path d="M232 344V280H168C154.7 280 144 269.3 144 256C144 242.7 154.7 232 168 232H232V168C232 154.7 242.7 144 256 144C269.3 144 280 154.7 280 168V232H344C357.3 232 368 242.7 368 256C368 269.3 357.3 280 344 280H280V344C280 357.3 269.3 368 256 368C242.7 368 232 357.3 232 344zM512 256C512 397.4 397.4 512 256 512C114.6 512 0 397.4 0 256C0 114.6 114.6 0 256 0C397.4 0 512 114.6 512 256zM256 48C141.1 48 48 141.1 48 256C48 370.9 141.1 464 256 464C370.9 464 464 370.9 464 256C464 141.1 370.9 48 256 48z"/></symbol>
	<symbol id="magnifying-glass-minus" viewBox="0 0 512 512"><path d="M500.3 443.7l-119.7-119.7c27.22-40.41 40.65-90.9 33.46-144.7c-12.23-91.55-87.28-166-178.9-177.6c-136.2-17.24-250.7 97.28-233.4 233.4c11.6 91.64 86.07 166.7 177.6 178.9c53.81 7.191 104.3-6.235 144.7-33.46l119.7 119.7c15.62 15.62 40.95 15.62 56.57 .0003C515.9 484.7 515.9 459.3 500.3 443.7zM288 232H127.1C114.7 232 104 221.3 104 208s10.74-24 23.1-24h160C301.3 184 312 194.7 312 208S301.3 232 288 232z"/></symbol>
	<symbol id="magnifying-glass-plus"  viewBox="0 0 512 512"><path d="M500.3 443.7l-119.7-119.7c27.22-40.41 40.65-90.9 33.46-144.7c-12.23-91.55-87.28-166-178.9-177.6c-136.2-17.24-250.7 97.28-233.4 233.4c11.6 91.64 86.07 166.7 177.6 178.9c53.81 7.191 104.3-6.235 144.7-33.46l119.7 119.7c15.62 15.62 40.95 15.62 56.57 .0003C515.9 484.7 515.9 459.3 500.3 443.7zM288 232H231.1V288c0 13.26-10.74 24-23.1 24C194.7 312 184 301.3 184 288V232H127.1C114.7 232 104 221.3 104 208s10.74-24 23.1-24H184V128c0-13.26 10.74-24 23.1-24S231.1 114.7 231.1 128v56h56C301.3 184 312 194.7 312 208S301.3 232 288 232z"/></symbol>
</svg>
